<svg id="Layer_1" xmlns="http://www.w3.org/2000/svg" width="365" height="85" viewBox="0 0 365 85"><style>.st0{fill:url(#SVGID_1_)}.st1{fill:url(#SVGID_2_)}.st2{fill:url(#SVGID_3_)}</style><path id="text" d="M63 52.3h7.6c6.1 0 10.3 3.9 10.3 9.7s-4.2 9.6-10.3 9.6H63V52.3zM70.6 68c3.2.2 5.9-2.3 6.1-5.5V62c0-3.4-2.1-6-6.1-6h-3.5v12h3.5zm13.2-15.7h4.1v19.3h-4.1V52.3zm17.3-.3c3.2-.1 6.3 1.5 8 4.2l-3.4 1.8c-1-1.5-2.7-2.4-4.6-2.4-3.3 0-6 2.6-6.1 5.9v.4c-.2 3.3 2.3 6.1 5.6 6.3h.4c1.5 0 3-.5 4.2-1.5v-2.4H100V61h9.2v7.4c-2.1 2.4-5.1 3.7-8.2 3.6-5.7 0-10.3-3.9-10.3-10s4.8-10 10.4-10zm11.5.3h4.1v19.3h-4.1V52.3zm12.4 3.6h-5.7v-3.6h15.4v3.6h-5.6v15.7H125V55.9zm22.9 12.4h-8.6l-1.2 3.3h-4.5l7.5-19.3h5.2l7.4 19.3h-4.5l-1.3-3.3zm-7.5-3.6h6.4l-3.2-8.9-3.2 8.9zm15-12.4h4.1V68h8.2v3.6h-12.3V52.3zm22.6 0h7.6c6.1 0 10.3 3.9 10.3 9.7s-4.2 9.6-10.3 9.6H178V52.3zm7.6 15.7c3.2.2 5.9-2.3 6.1-5.5V62c0-3.4-2.1-6-6.1-6h-3.5v12h3.5zm13.2-15.7h13.7v3.5H203V60h9.4v3.5H203V68h9.6v3.6h-13.7V52.3h-.1zm16.9 0h9c4.2 0 6.5 2.8 6.5 6.2s-2.3 6.2-6.5 6.2h-4.9v6.9h-4.1V52.3zm8.5 3.6h-4.4v5.3h4.4c1.5.1 2.7-1 2.8-2.5s-1-2.7-2.5-2.8c0-.1-.2-.1-.3 0zm9.6-3.6h4.1V68h8.2v3.6h-12.3V52.3zm23.6-.3c5.4-.2 9.9 3.9 10.1 9.3v.7c-.2 5.6-4.8 10-10.4 9.8-5.3-.2-9.6-4.5-9.8-9.8-.2-5.4 4-9.8 9.4-10h.7zm0 3.6c-3.6 0-5.9 2.7-5.9 6.3 0 3.6 2.3 6.3 5.9 6.3 3.6 0 5.9-2.8 5.9-6.3s-2.4-6.3-5.9-6.3zm17.2 8.1l-7.5-11.4h4.7l4.8 7.8 4.8-7.8h4.7l-7.4 11.4v7.9h-4.1v-7.9zm30.2-6l-5.5 13.9h-1.8L292 57.7v13.9h-4.1V52.3h5.8l4.7 12 4.7-12h5.8v19.3h-4.1V57.7zm7.9-5.4h13.7v3.5h-9.6V60h9.4v3.5h-9.4V68h9.6v3.6h-13.7V52.3zm21 6.4v13h-4.1V52.3h4.2l9 12.5V52.3h4.1v19.3h-4l-9.2-12.9zm21.5-2.8h-5.7v-3.6H365v3.6h-5.6v15.7h-4.1l-.1-15.7z"/><g id="logo"><linearGradient id="SVGID_1_" gradientUnits="userSpaceOnUse" x1="-4.827" y1="51.882" x2="84.845" y2="-31.738" gradientTransform="translate(16.618 27.313)"><stop offset="0" stop-color="#00aec5"/><stop offset=".31" stop-color="#1ebfd2"/><stop offset=".5" stop-color="#a3dbe6"/><stop offset=".7" stop-color="#dcf1f3"/><stop offset="1" stop-color="#fafdfd"/></linearGradient><path class="st0" d="M17.2 67.8L86.9-1.7H104L17.2 85V67.8z"/><linearGradient id="SVGID_2_" gradientUnits="userSpaceOnUse" x1="-23.311" y1="31.829" x2="66.359" y2="-51.79" gradientTransform="translate(15.806 45.008)"><stop offset="0" stop-color="#003a5b"/><stop offset=".19" stop-color="#006182"/><stop offset=".4" stop-color="#a3bdd2"/><stop offset=".6" stop-color="#eaeaea"/><stop offset="1" stop-color="#eaeaea"/></linearGradient><path class="st1" d="M0 84.9V58.7L60.7-1.8l26.2.1-69.7 69.5L0 84.9"/><linearGradient id="SVGID_3_" gradientUnits="userSpaceOnUse" x1="13.958" y1="64.32" x2="85.904" y2="-2.771"><stop offset="0" stop-color="#005768"/><stop offset=".2" stop-color="#008ca2"/><stop offset=".3" stop-color="#00a7bb"/><stop offset=".51" stop-color="#9dd4e0"/><stop offset=".71" stop-color="#d9eff3"/><stop offset="1" stop-color="#eaeaea"/></linearGradient><path class="st2" d="M77.9-1.8l9 .1-69.7 69.5v-9.1z"/></g></svg>