<svg id="Layer_1" data-name="Layer 1" xmlns="http://www.w3.org/2000/svg" viewBox="0 0 1475.52 324.61"><defs><style>.cls-1{fill:#062e4a;}.cls-2{fill:#0fa8c2;}.cls-3{fill:#0ac7db;}</style></defs><path class="cls-1" d="M193.31,318.13c0,53.56-38.66,87.27-81.24,87.27-18.8,0-41.51-7.81-53.21-24.84V482.38H12.39V235.47H58.86v20.22c11.7-16.68,34.41-24.48,53.21-24.48C154.65,231.21,193.31,265.27,193.31,318.13Zm-47.53.35c0-24.48-19.16-44-42.58-44-22.7,0-42.92,18.8-42.92,44s21.28,43.64,42.92,43.64C126.62,362.12,145.78,343,145.78,318.48Z" transform="translate(-12.39 -157.77)"/><path class="cls-1" d="M386.29,333.38H261.77c5,19.51,20.57,30.87,42.57,30.87A59.14,59.14,0,0,0,348,344.73l27,27.32C359.33,393,330.59,405.4,301.5,405.4c-51.09,0-88.34-35.83-88.34-86.92,0-53.57,40.8-87.27,88-87.27,47.54,0,86.21,33.7,86.21,84.43C387.35,320.25,387,325.93,386.29,333.38Zm-45.77-30.15c-1.41-19.51-17.38-31.93-38.31-31.93-19.16,0-35.48,9.58-40.44,31.93Z" transform="translate(-12.39 -157.77)"/><path class="cls-1" d="M576.64,310.32v90.82H530.16V312.81c0-25.9-15.61-37.61-31.57-37.61-16.67,0-37.25,8.87-37.25,39v86.92H414.87V235.47h46.47v28c7.09-22.35,33.35-32.28,49.67-32.28C554.29,231.21,577,260.66,576.64,310.32Z" transform="translate(-12.39 -157.77)"/><path class="cls-1" d="M602.24,349h43.64c0,9.58,8.16,19.87,24.48,19.87,13.48,0,23.77-6.74,23.77-16.32,0-7.1-5.68-10.64-18.09-13.84l-22-5.32c-42.57-11.35-48.25-35.12-48.25-52.5,0-25.55,26.61-49.67,64.92-49.67,30.16,0,65.63,14.55,65.28,53.92H691.64c0-11.35-9.22-17.38-20.22-17.38-10.64,0-19.16,6-19.16,14.55,0,7.8,7.1,11.7,16.32,14.19l27.32,7.09c39.73,10.64,44.7,35.48,44.7,49,0,34.76-35.48,52.86-69.53,52.86C636.3,405.4,602.6,385.53,602.24,349Z" transform="translate(-12.39 -157.77)"/><path class="cls-1" d="M775.43,401.14V235.47h46.48V401.14Z" transform="translate(-12.39 -157.77)"/><path class="cls-1" d="M853.25,318.48c0-52.5,41.87-87.27,89-87.27s89,34.77,89,87.27c0,52.15-41.86,86.92-89,86.92S853.25,370.63,853.25,318.48Zm130.91,0c0-25.89-18.8-44-41.86-44s-41.86,18.1-41.86,44c0,25.55,18.8,43.64,41.86,43.64S984.16,344,984.16,318.48Z" transform="translate(-12.39 -157.77)"/><path class="cls-1" d="M1215.45,310.32v90.82H1169V312.81c0-25.9-15.61-37.61-31.58-37.61-16.67,0-37.25,8.87-37.25,39v86.92h-46.47V235.47h46.47v28c7.1-22.35,33.35-32.28,49.67-32.28C1193.1,231.21,1215.8,260.66,1215.45,310.32Z" transform="translate(-12.39 -157.77)"/><polygon class="cls-2" points="1475.52 304.55 1292.9 36.62 1214.21 26.44 1398.83 294.59 1475.52 304.55"/><path class="cls-1" d="M769.05,185.45c0-15.61,13.48-27.68,29.44-27.68,16.32,0,29.45,12.07,29.45,27.68s-13.13,28-29.45,28C782.53,213.47,769.05,201.06,769.05,185.45Z" transform="translate(-12.39 -157.77)"/><polygon class="cls-3" points="1214.21 304.55 1396.83 36.62 1475.52 26.44 1290.9 294.59 1214.21 304.55"/></svg>